<svg xmlns="http://www.w3.org/2000/svg" xmlns:xlink="http://www.w3.org/1999/xlink" width="300" zoomAndPan="magnify" viewBox="0 0 224.87999 225" height="300" preserveAspectRatio="xMidYMid meet" version="1.2"><defs/><g id="e10992c6dd"><g style="fill:#80b9b1;fill-opacity:1;"><g transform="translate(3.6543, 128.416523)"><path style="stroke:none" d="M 1.5 -29.46875 C 1.5 -30.425781 1.414062 -31.207031 1.25 -31.8125 C 1.082031 -32.425781 0.773438 -32.957031 0.328125 -33.40625 L 14.703125 -33.40625 C 16.859375 -33.40625 18.628906 -33.007812 20.015625 -32.21875 C 21.410156 -31.425781 22.445312 -30.398438 23.125 -29.140625 C 23.8125 -27.890625 24.15625 -26.550781 24.15625 -25.125 C 24.15625 -24.1875 23.957031 -23.222656 23.5625 -22.234375 C 23.175781 -21.242188 22.59375 -20.328125 21.8125 -19.484375 C 21.03125 -18.648438 20.0625 -17.976562 18.90625 -17.46875 C 17.75 -16.957031 16.398438 -16.703125 14.859375 -16.703125 C 13.640625 -16.703125 12.441406 -16.820312 11.265625 -17.0625 C 10.097656 -17.3125 9.035156 -17.550781 8.078125 -17.78125 C 7.117188 -18.019531 6.332031 -18.140625 5.71875 -18.140625 C 5.488281 -18.140625 5.300781 -18.09375 5.15625 -18 C 5.007812 -17.914062 4.9375 -17.785156 4.9375 -17.609375 C 4.9375 -17.273438 5.265625 -16.988281 5.921875 -16.75 C 6.585938 -16.519531 7.429688 -16.332031 8.453125 -16.1875 C 9.472656 -16.039062 10.535156 -15.914062 11.640625 -15.8125 C 12.742188 -15.71875 13.738281 -15.625 14.625 -15.53125 C 18.039062 -15.195312 20.535156 -14.3125 22.109375 -12.875 C 23.691406 -11.4375 24.484375 -9.570312 24.484375 -7.28125 C 24.484375 -5.96875 24.117188 -4.757812 23.390625 -3.65625 C 22.671875 -2.550781 21.695312 -1.664062 20.46875 -1 C 19.25 -0.332031 17.867188 0 16.328125 0 L 0.328125 0 C 0.773438 -0.445312 1.082031 -0.972656 1.25 -1.578125 C 1.414062 -2.191406 1.5 -2.976562 1.5 -3.9375 Z M 12.265625 -26.71875 C 11.128906 -26.71875 10.019531 -26.601562 8.9375 -26.375 C 7.851562 -26.144531 6.890625 -25.8125 6.046875 -25.375 C 5.203125 -24.9375 4.53125 -24.429688 4.03125 -23.859375 C 3.53125 -23.296875 3.28125 -22.679688 3.28125 -22.015625 C 3.28125 -21.253906 3.625 -20.664062 4.3125 -20.25 C 5 -19.84375 5.800781 -19.640625 6.71875 -19.640625 C 8.632812 -19.640625 10.265625 -19.882812 11.609375 -20.375 C 12.953125 -20.863281 13.976562 -21.460938 14.6875 -22.171875 C 15.40625 -22.890625 15.765625 -23.582031 15.765625 -24.25 C 15.765625 -24.914062 15.460938 -25.492188 14.859375 -25.984375 C 14.265625 -26.472656 13.398438 -26.71875 12.265625 -26.71875 Z M 3.703125 -15.53125 C 3.546875 -15.53125 3.441406 -15.488281 3.390625 -15.40625 C 3.335938 -15.332031 3.3125 -15.253906 3.3125 -15.171875 C 3.3125 -14.960938 3.441406 -14.671875 3.703125 -14.296875 C 3.972656 -13.921875 4.296875 -13.519531 4.671875 -13.09375 C 5.054688 -12.664062 5.390625 -12.273438 5.671875 -11.921875 C 6.296875 -11.210938 6.992188 -10.441406 7.765625 -9.609375 C 8.535156 -8.773438 9.394531 -8.0625 10.34375 -7.46875 C 11.289062 -6.875 12.296875 -6.578125 13.359375 -6.578125 C 14.023438 -6.578125 14.550781 -6.703125 14.9375 -6.953125 C 15.332031 -7.210938 15.613281 -7.523438 15.78125 -7.890625 C 15.945312 -8.265625 16.03125 -8.617188 16.03125 -8.953125 C 16.03125 -9.773438 15.550781 -10.609375 14.59375 -11.453125 C 13.632812 -12.304688 11.921875 -13.109375 9.453125 -13.859375 C 7.671875 -14.421875 6.375 -14.835938 5.5625 -15.109375 C 4.75 -15.390625 4.128906 -15.53125 3.703125 -15.53125 Z M 3.703125 -15.53125 "/></g></g><g style="fill:#80b9b1;fill-opacity:1;"><g transform="translate(28.798713, 128.416523)"><path style="stroke:none" d="M 0.828125 -5.21875 C 0.828125 -7 1.179688 -8.5625 1.890625 -9.90625 C 2.609375 -11.25 3.570312 -12.40625 4.78125 -13.375 C 6 -14.34375 7.359375 -15.140625 8.859375 -15.765625 C 10.367188 -16.390625 11.90625 -16.867188 13.46875 -17.203125 C 13.957031 -17.316406 14.28125 -17.515625 14.4375 -17.796875 C 14.59375 -18.085938 14.671875 -18.378906 14.671875 -18.671875 C 14.671875 -19.160156 14.597656 -19.664062 14.453125 -20.1875 C 14.304688 -20.71875 14.023438 -21.164062 13.609375 -21.53125 C 13.203125 -21.894531 12.585938 -22.066406 11.765625 -22.046875 C 10.910156 -22.023438 10.140625 -21.78125 9.453125 -21.3125 C 8.765625 -20.84375 8.132812 -20.269531 7.5625 -19.59375 C 7 -18.914062 6.472656 -18.234375 5.984375 -17.546875 C 5.492188 -16.867188 5.03125 -16.300781 4.59375 -15.84375 C 4.15625 -15.394531 3.726562 -15.171875 3.3125 -15.171875 C 3.039062 -15.171875 2.796875 -15.273438 2.578125 -15.484375 C 2.367188 -15.691406 2.265625 -15.941406 2.265625 -16.234375 L 2.265625 -18.078125 C 2.265625 -18.648438 2.269531 -19.210938 2.28125 -19.765625 C 2.300781 -20.328125 2.519531 -20.8125 2.9375 -21.21875 C 4.070312 -22.300781 5.46875 -23.015625 7.125 -23.359375 C 8.789062 -23.710938 10.503906 -23.890625 12.265625 -23.890625 C 14.179688 -23.890625 15.847656 -23.59375 17.265625 -23 C 18.691406 -22.40625 19.867188 -21.625 20.796875 -20.65625 C 21.722656 -19.6875 22.410156 -18.613281 22.859375 -17.4375 C 23.316406 -16.257812 23.546875 -15.066406 23.546875 -13.859375 L 23.546875 -3.9375 C 23.546875 -2.976562 23.628906 -2.191406 23.796875 -1.578125 C 23.960938 -0.972656 24.269531 -0.445312 24.71875 0 L 16.53125 0 C 15.550781 0 14.972656 -0.476562 14.796875 -1.4375 C 14.753906 -1.726562 14.660156 -1.992188 14.515625 -2.234375 C 14.367188 -2.484375 14.175781 -2.609375 13.9375 -2.609375 C 13.570312 -2.609375 13.21875 -2.453125 12.875 -2.140625 C 12.53125 -1.828125 12.113281 -1.460938 11.625 -1.046875 C 11.132812 -0.640625 10.503906 -0.28125 9.734375 0.03125 C 8.960938 0.34375 7.976562 0.5 6.78125 0.5 C 5.707031 0.5 4.71875 0.242188 3.8125 -0.265625 C 2.914062 -0.773438 2.191406 -1.457031 1.640625 -2.3125 C 1.097656 -3.175781 0.828125 -4.144531 0.828125 -5.21875 Z M 13.46875 -15.03125 C 12.75 -15.03125 12.023438 -14.753906 11.296875 -14.203125 C 10.578125 -13.660156 9.984375 -12.894531 9.515625 -11.90625 C 9.046875 -10.914062 8.8125 -9.734375 8.8125 -8.359375 C 8.8125 -7.578125 8.90625 -6.832031 9.09375 -6.125 C 9.289062 -5.425781 9.613281 -4.851562 10.0625 -4.40625 C 10.519531 -3.957031 11.164062 -3.734375 12 -3.734375 C 12.90625 -3.734375 13.582031 -4.09375 14.03125 -4.8125 C 14.476562 -5.539062 14.703125 -6.453125 14.703125 -7.546875 C 14.703125 -8.597656 14.695312 -9.503906 14.6875 -10.265625 C 14.675781 -11.035156 14.671875 -11.9375 14.671875 -12.96875 C 14.671875 -13.71875 14.578125 -14.25 14.390625 -14.5625 C 14.210938 -14.875 13.90625 -15.03125 13.46875 -15.03125 Z M 13.46875 -15.03125 "/></g></g><g style="fill:#80b9b1;fill-opacity:1;"><g transform="translate(53.67598, 128.416523)"><path style="stroke:none" d="M 11.53125 0 L 0.328125 0 C 0.773438 -0.445312 1.082031 -0.972656 1.25 -1.578125 C 1.414062 -2.191406 1.5 -2.976562 1.5 -3.9375 L 1.5 -19.4375 C 1.5 -20.394531 1.414062 -21.179688 1.25 -21.796875 C 1.082031 -22.410156 0.773438 -22.941406 0.328125 -23.390625 L 8.515625 -23.390625 C 9.234375 -23.390625 9.71875 -23.132812 9.96875 -22.625 C 10.226562 -22.125 10.359375 -21.453125 10.359375 -20.609375 L 10.359375 -20.046875 C 10.359375 -19.640625 10.378906 -19.398438 10.421875 -19.328125 C 10.460938 -19.265625 10.519531 -19.234375 10.59375 -19.234375 C 10.851562 -19.234375 11.113281 -19.390625 11.375 -19.703125 C 11.632812 -20.015625 11.9375 -20.40625 12.28125 -20.875 C 12.625 -21.34375 13.046875 -21.804688 13.546875 -22.265625 C 14.046875 -22.722656 14.679688 -23.109375 15.453125 -23.421875 C 16.222656 -23.734375 17.175781 -23.890625 18.3125 -23.890625 C 19.53125 -23.890625 20.507812 -23.648438 21.25 -23.171875 C 22 -22.691406 22.570312 -22.054688 22.96875 -21.265625 C 23.375 -20.472656 23.648438 -19.617188 23.796875 -18.703125 C 23.941406 -17.796875 24.015625 -16.90625 24.015625 -16.03125 L 24.046875 -9.65625 L 24.046875 -3.9375 C 24.046875 -2.976562 24.128906 -2.191406 24.296875 -1.578125 C 24.460938 -0.972656 24.769531 -0.445312 25.21875 0 L 14.03125 0 C 14.476562 -0.445312 14.785156 -0.972656 14.953125 -1.578125 C 15.117188 -2.191406 15.203125 -2.976562 15.203125 -3.9375 L 15.203125 -14.796875 C 15.203125 -15.578125 15.066406 -16.265625 14.796875 -16.859375 C 14.523438 -17.460938 14.023438 -17.765625 13.296875 -17.765625 C 12.785156 -17.765625 12.304688 -17.625 11.859375 -17.34375 C 11.410156 -17.070312 11.046875 -16.597656 10.765625 -15.921875 C 10.492188 -15.242188 10.359375 -14.28125 10.359375 -13.03125 L 10.359375 -3.9375 C 10.359375 -2.976562 10.441406 -2.191406 10.609375 -1.578125 C 10.773438 -0.972656 11.082031 -0.445312 11.53125 0 Z M 11.53125 0 "/></g></g><g style="fill:#80b9b1;fill-opacity:1;"><g transform="translate(79.05414, 128.416523)"><path style="stroke:none" d="M 11.53125 0 L 0.328125 0 C 0.773438 -0.445312 1.082031 -0.972656 1.25 -1.578125 C 1.414062 -2.191406 1.5 -2.976562 1.5 -3.9375 L 1.5 -19.4375 C 1.5 -20.394531 1.414062 -21.179688 1.25 -21.796875 C 1.082031 -22.410156 0.773438 -22.941406 0.328125 -23.390625 L 8.515625 -23.390625 C 9.234375 -23.390625 9.71875 -23.132812 9.96875 -22.625 C 10.226562 -22.125 10.359375 -21.453125 10.359375 -20.609375 L 10.359375 -20.046875 C 10.359375 -19.640625 10.378906 -19.398438 10.421875 -19.328125 C 10.460938 -19.265625 10.519531 -19.234375 10.59375 -19.234375 C 10.851562 -19.234375 11.113281 -19.390625 11.375 -19.703125 C 11.632812 -20.015625 11.9375 -20.40625 12.28125 -20.875 C 12.625 -21.34375 13.046875 -21.804688 13.546875 -22.265625 C 14.046875 -22.722656 14.679688 -23.109375 15.453125 -23.421875 C 16.222656 -23.734375 17.175781 -23.890625 18.3125 -23.890625 C 19.53125 -23.890625 20.507812 -23.648438 21.25 -23.171875 C 22 -22.691406 22.570312 -22.054688 22.96875 -21.265625 C 23.375 -20.472656 23.648438 -19.617188 23.796875 -18.703125 C 23.941406 -17.796875 24.015625 -16.90625 24.015625 -16.03125 L 24.046875 -9.65625 L 24.046875 -3.9375 C 24.046875 -2.976562 24.128906 -2.191406 24.296875 -1.578125 C 24.460938 -0.972656 24.769531 -0.445312 25.21875 0 L 14.03125 0 C 14.476562 -0.445312 14.785156 -0.972656 14.953125 -1.578125 C 15.117188 -2.191406 15.203125 -2.976562 15.203125 -3.9375 L 15.203125 -14.796875 C 15.203125 -15.578125 15.066406 -16.265625 14.796875 -16.859375 C 14.523438 -17.460938 14.023438 -17.765625 13.296875 -17.765625 C 12.785156 -17.765625 12.304688 -17.625 11.859375 -17.34375 C 11.410156 -17.070312 11.046875 -16.597656 10.765625 -15.921875 C 10.492188 -15.242188 10.359375 -14.28125 10.359375 -13.03125 L 10.359375 -3.9375 C 10.359375 -2.976562 10.441406 -2.191406 10.609375 -1.578125 C 10.773438 -0.972656 11.082031 -0.445312 11.53125 0 Z M 11.53125 0 "/></g></g><g style="fill:#80b9b1;fill-opacity:1;"><g transform="translate(104.432301, 128.416523)"><path style="stroke:none" d="M 0.828125 -11.0625 C 0.828125 -13.507812 1.285156 -15.695312 2.203125 -17.625 C 3.117188 -19.550781 4.46875 -21.078125 6.25 -22.203125 C 8.03125 -23.328125 10.222656 -23.890625 12.828125 -23.890625 C 14.804688 -23.890625 16.492188 -23.460938 17.890625 -22.609375 C 19.285156 -21.765625 20.34375 -20.660156 21.0625 -19.296875 C 21.78125 -17.941406 22.140625 -16.5 22.140625 -14.96875 C 22.140625 -13.851562 21.878906 -12.988281 21.359375 -12.375 C 20.835938 -11.757812 20.125 -11.320312 19.21875 -11.0625 C 18.320312 -10.8125 17.304688 -10.664062 16.171875 -10.625 C 15.035156 -10.582031 13.847656 -10.585938 12.609375 -10.640625 C 11.367188 -10.691406 10.160156 -10.71875 8.984375 -10.71875 C 8.828125 -10.71875 8.660156 -10.703125 8.484375 -10.671875 C 8.304688 -10.640625 8.21875 -10.476562 8.21875 -10.1875 C 8.21875 -9.894531 8.507812 -9.492188 9.09375 -8.984375 C 9.6875 -8.472656 10.453125 -7.945312 11.390625 -7.40625 C 12.328125 -6.875 13.328125 -6.429688 14.390625 -6.078125 C 15.460938 -5.722656 16.476562 -5.546875 17.4375 -5.546875 C 18.238281 -5.546875 18.882812 -5.632812 19.375 -5.8125 C 19.863281 -5.988281 20.253906 -6.1875 20.546875 -6.40625 C 20.835938 -6.632812 21.078125 -6.835938 21.265625 -7.015625 C 21.453125 -7.191406 21.625 -7.28125 21.78125 -7.28125 C 21.894531 -7.28125 22.007812 -7.234375 22.125 -7.140625 C 22.25 -7.054688 22.3125 -6.867188 22.3125 -6.578125 C 22.3125 -5.953125 22.128906 -5.234375 21.765625 -4.421875 C 21.398438 -3.609375 20.84375 -2.828125 20.09375 -2.078125 C 19.34375 -1.335938 18.382812 -0.722656 17.21875 -0.234375 C 16.050781 0.253906 14.664062 0.5 13.0625 0.5 C 11.457031 0.5 9.921875 0.210938 8.453125 -0.359375 C 6.984375 -0.941406 5.679688 -1.753906 4.546875 -2.796875 C 3.410156 -3.847656 2.503906 -5.070312 1.828125 -6.46875 C 1.160156 -7.875 0.828125 -9.40625 0.828125 -11.0625 Z M 4.578125 -17.171875 C 4.578125 -16.390625 4.703125 -15.625 4.953125 -14.875 C 5.210938 -14.132812 5.625 -13.523438 6.1875 -13.046875 C 6.757812 -12.566406 7.492188 -12.328125 8.390625 -12.328125 C 9.160156 -12.328125 9.945312 -12.351562 10.75 -12.40625 C 11.550781 -12.46875 12.289062 -12.582031 12.96875 -12.75 C 13.65625 -12.914062 14.203125 -13.164062 14.609375 -13.5 C 15.023438 -13.832031 15.234375 -14.273438 15.234375 -14.828125 C 15.234375 -15.703125 15.015625 -16.472656 14.578125 -17.140625 C 14.148438 -17.804688 13.582031 -18.375 12.875 -18.84375 C 12.175781 -19.3125 11.4375 -19.660156 10.65625 -19.890625 C 9.875 -20.128906 9.128906 -20.25 8.421875 -20.25 C 7.796875 -20.25 7.1875 -20.125 6.59375 -19.875 C 6.007812 -19.632812 5.523438 -19.285156 5.140625 -18.828125 C 4.765625 -18.367188 4.578125 -17.816406 4.578125 -17.171875 Z M 4.578125 -17.171875 "/></g></g><g style="fill:#80b9b1;fill-opacity:1;"><g transform="translate(127.406207, 128.416523)"><path style="stroke:none" d="M 0.328125 0 C 0.773438 -0.445312 1.082031 -0.972656 1.25 -1.578125 C 1.414062 -2.191406 1.5 -2.976562 1.5 -3.9375 L 1.5 -19.4375 C 1.5 -20.394531 1.414062 -21.179688 1.25 -21.796875 C 1.082031 -22.410156 0.773438 -22.941406 0.328125 -23.390625 L 8.515625 -23.390625 C 9.234375 -23.390625 9.71875 -23.132812 9.96875 -22.625 C 10.226562 -22.125 10.359375 -21.453125 10.359375 -20.609375 L 10.359375 -20.046875 C 10.359375 -19.640625 10.378906 -19.398438 10.421875 -19.328125 C 10.460938 -19.265625 10.519531 -19.234375 10.59375 -19.234375 C 10.832031 -19.234375 11.066406 -19.390625 11.296875 -19.703125 C 11.535156 -20.015625 11.8125 -20.40625 12.125 -20.875 C 12.4375 -21.34375 12.835938 -21.804688 13.328125 -22.265625 C 13.816406 -22.722656 14.421875 -23.109375 15.140625 -23.421875 C 15.867188 -23.734375 16.757812 -23.890625 17.8125 -23.890625 C 18.40625 -23.890625 19.023438 -23.8125 19.671875 -23.65625 C 20.316406 -23.5 20.863281 -23.273438 21.3125 -22.984375 C 21.757812 -22.691406 21.984375 -22.320312 21.984375 -21.875 C 21.984375 -21.675781 21.785156 -21.203125 21.390625 -20.453125 C 21.003906 -19.710938 20.597656 -18.921875 20.171875 -18.078125 C 19.703125 -17.160156 19.28125 -16.328125 18.90625 -15.578125 C 18.53125 -14.835938 18.1875 -14.46875 17.875 -14.46875 C 17.519531 -14.46875 17.238281 -14.613281 17.03125 -14.90625 C 16.832031 -15.207031 16.617188 -15.546875 16.390625 -15.921875 C 16.171875 -16.304688 15.84375 -16.648438 15.40625 -16.953125 C 14.976562 -17.253906 14.363281 -17.40625 13.5625 -17.40625 C 12.625 -17.40625 11.925781 -17.164062 11.46875 -16.6875 C 11.019531 -16.207031 10.722656 -15.632812 10.578125 -14.96875 C 10.429688 -14.300781 10.359375 -13.65625 10.359375 -13.03125 L 10.359375 -3.9375 C 10.359375 -2.976562 10.441406 -2.191406 10.609375 -1.578125 C 10.773438 -0.972656 11.082031 -0.445312 11.53125 0 Z M 0.328125 0 "/></g></g><g style="fill:#80b9b1;fill-opacity:1;"><g transform="translate(149.712273, 128.416523)"><path style="stroke:none" d="M 0 -19.8125 C 0 -19.988281 0.0507812 -20.097656 0.15625 -20.140625 C 0.269531 -20.179688 0.34375 -20.21875 0.375 -20.25 C 0.632812 -20.375 1.046875 -20.578125 1.609375 -20.859375 C 2.179688 -21.140625 2.828125 -21.453125 3.546875 -21.796875 C 4.273438 -22.140625 5.019531 -22.46875 5.78125 -22.78125 C 6.539062 -23.09375 7.242188 -23.351562 7.890625 -23.5625 C 8.535156 -23.78125 9.054688 -23.890625 9.453125 -23.890625 C 9.941406 -23.890625 10.226562 -23.753906 10.3125 -23.484375 C 10.40625 -23.210938 10.453125 -22.910156 10.453125 -22.578125 L 10.453125 -3.9375 C 10.453125 -2.976562 10.535156 -2.191406 10.703125 -1.578125 C 10.867188 -0.972656 11.175781 -0.445312 11.625 0 L 0.4375 0 C 0.882812 -0.445312 1.191406 -0.972656 1.359375 -1.578125 C 1.523438 -2.191406 1.609375 -2.976562 1.609375 -3.9375 L 1.609375 -16.765625 C 1.609375 -16.898438 1.597656 -17.144531 1.578125 -17.5 C 1.566406 -17.863281 1.488281 -18.226562 1.34375 -18.59375 C 1.207031 -18.957031 0.925781 -19.207031 0.5 -19.34375 C 0.457031 -19.363281 0.363281 -19.394531 0.21875 -19.4375 C 0.0703125 -19.488281 0 -19.613281 0 -19.8125 Z M 5.953125 -35.375 C 7.421875 -35.375 8.597656 -34.925781 9.484375 -34.03125 C 10.378906 -33.144531 10.828125 -31.96875 10.828125 -30.5 C 10.828125 -29.03125 10.378906 -27.847656 9.484375 -26.953125 C 8.597656 -26.066406 7.421875 -25.625 5.953125 -25.625 C 4.472656 -25.625 3.285156 -26.066406 2.390625 -26.953125 C 1.503906 -27.847656 1.0625 -29.03125 1.0625 -30.5 C 1.0625 -31.96875 1.503906 -33.144531 2.390625 -34.03125 C 3.285156 -34.925781 4.472656 -35.375 5.953125 -35.375 Z M 5.953125 -35.375 "/></g></g><g style="fill:#80b9b1;fill-opacity:1;"><g transform="translate(161.499759, 128.416523)"><path style="stroke:none" d="M 0.828125 -11.0625 C 0.828125 -13.507812 1.285156 -15.695312 2.203125 -17.625 C 3.117188 -19.550781 4.46875 -21.078125 6.25 -22.203125 C 8.03125 -23.328125 10.222656 -23.890625 12.828125 -23.890625 C 14.804688 -23.890625 16.492188 -23.460938 17.890625 -22.609375 C 19.285156 -21.765625 20.34375 -20.660156 21.0625 -19.296875 C 21.78125 -17.941406 22.140625 -16.5 22.140625 -14.96875 C 22.140625 -13.851562 21.878906 -12.988281 21.359375 -12.375 C 20.835938 -11.757812 20.125 -11.320312 19.21875 -11.0625 C 18.320312 -10.8125 17.304688 -10.664062 16.171875 -10.625 C 15.035156 -10.582031 13.847656 -10.585938 12.609375 -10.640625 C 11.367188 -10.691406 10.160156 -10.71875 8.984375 -10.71875 C 8.828125 -10.71875 8.660156 -10.703125 8.484375 -10.671875 C 8.304688 -10.640625 8.21875 -10.476562 8.21875 -10.1875 C 8.21875 -9.894531 8.507812 -9.492188 9.09375 -8.984375 C 9.6875 -8.472656 10.453125 -7.945312 11.390625 -7.40625 C 12.328125 -6.875 13.328125 -6.429688 14.390625 -6.078125 C 15.460938 -5.722656 16.476562 -5.546875 17.4375 -5.546875 C 18.238281 -5.546875 18.882812 -5.632812 19.375 -5.8125 C 19.863281 -5.988281 20.253906 -6.1875 20.546875 -6.40625 C 20.835938 -6.632812 21.078125 -6.835938 21.265625 -7.015625 C 21.453125 -7.191406 21.625 -7.28125 21.78125 -7.28125 C 21.894531 -7.28125 22.007812 -7.234375 22.125 -7.140625 C 22.25 -7.054688 22.3125 -6.867188 22.3125 -6.578125 C 22.3125 -5.953125 22.128906 -5.234375 21.765625 -4.421875 C 21.398438 -3.609375 20.84375 -2.828125 20.09375 -2.078125 C 19.34375 -1.335938 18.382812 -0.722656 17.21875 -0.234375 C 16.050781 0.253906 14.664062 0.5 13.0625 0.5 C 11.457031 0.5 9.921875 0.210938 8.453125 -0.359375 C 6.984375 -0.941406 5.679688 -1.753906 4.546875 -2.796875 C 3.410156 -3.847656 2.503906 -5.070312 1.828125 -6.46875 C 1.160156 -7.875 0.828125 -9.40625 0.828125 -11.0625 Z M 4.578125 -17.171875 C 4.578125 -16.390625 4.703125 -15.625 4.953125 -14.875 C 5.210938 -14.132812 5.625 -13.523438 6.1875 -13.046875 C 6.757812 -12.566406 7.492188 -12.328125 8.390625 -12.328125 C 9.160156 -12.328125 9.945312 -12.351562 10.75 -12.40625 C 11.550781 -12.46875 12.289062 -12.582031 12.96875 -12.75 C 13.65625 -12.914062 14.203125 -13.164062 14.609375 -13.5 C 15.023438 -13.832031 15.234375 -14.273438 15.234375 -14.828125 C 15.234375 -15.703125 15.015625 -16.472656 14.578125 -17.140625 C 14.148438 -17.804688 13.582031 -18.375 12.875 -18.84375 C 12.175781 -19.3125 11.4375 -19.660156 10.65625 -19.890625 C 9.875 -20.128906 9.128906 -20.25 8.421875 -20.25 C 7.796875 -20.25 7.1875 -20.125 6.59375 -19.875 C 6.007812 -19.632812 5.523438 -19.285156 5.140625 -18.828125 C 4.765625 -18.367188 4.578125 -17.816406 4.578125 -17.171875 Z M 4.578125 -17.171875 "/></g></g><g style="fill:#80b9b1;fill-opacity:1;"><g transform="translate(184.473666, 128.416523)"><path style="stroke:none" d="M 0.5 -16.703125 C 0.5 -18.109375 0.816406 -19.269531 1.453125 -20.1875 C 2.085938 -21.113281 2.929688 -21.84375 3.984375 -22.375 C 5.046875 -22.914062 6.207031 -23.300781 7.46875 -23.53125 C 8.726562 -23.769531 9.992188 -23.890625 11.265625 -23.890625 C 12.734375 -23.890625 14.113281 -23.769531 15.40625 -23.53125 C 16.695312 -23.300781 17.835938 -22.988281 18.828125 -22.59375 C 19.816406 -22.207031 20.585938 -21.78125 21.140625 -21.3125 C 21.703125 -20.84375 21.984375 -20.363281 21.984375 -19.875 C 21.984375 -19.144531 21.8125 -18.425781 21.46875 -17.71875 C 21.125 -17.019531 20.703125 -16.445312 20.203125 -16 C 19.710938 -15.550781 19.269531 -15.328125 18.875 -15.328125 C 17.976562 -15.328125 17.128906 -15.550781 16.328125 -16 C 15.535156 -16.445312 14.757812 -17 14 -17.65625 C 13.238281 -18.3125 12.484375 -18.960938 11.734375 -19.609375 C 10.992188 -20.253906 10.238281 -20.800781 9.46875 -21.25 C 8.695312 -21.695312 7.890625 -21.921875 7.046875 -21.921875 C 6.671875 -21.921875 6.269531 -21.84375 5.84375 -21.6875 C 5.425781 -21.53125 5.078125 -21.28125 4.796875 -20.9375 C 4.515625 -20.601562 4.375 -20.160156 4.375 -19.609375 C 4.375 -19.078125 4.597656 -18.628906 5.046875 -18.265625 C 5.492188 -17.910156 6.097656 -17.625 6.859375 -17.40625 C 7.628906 -17.1875 8.484375 -16.984375 9.421875 -16.796875 C 10.890625 -16.535156 12.363281 -16.207031 13.84375 -15.8125 C 15.320312 -15.425781 16.664062 -14.898438 17.875 -14.234375 C 19.09375 -13.566406 20.070312 -12.691406 20.8125 -11.609375 C 21.550781 -10.523438 21.921875 -9.179688 21.921875 -7.578125 C 21.921875 -6.046875 21.578125 -4.753906 20.890625 -3.703125 C 20.210938 -2.660156 19.347656 -1.832031 18.296875 -1.21875 C 17.253906 -0.601562 16.160156 -0.164062 15.015625 0.09375 C 13.867188 0.363281 12.828125 0.5 11.890625 0.5 C 10.753906 0.5 9.535156 0.421875 8.234375 0.265625 C 6.929688 0.109375 5.707031 -0.0976562 4.5625 -0.359375 C 3.414062 -0.628906 2.476562 -0.945312 1.75 -1.3125 C 1.03125 -1.6875 0.671875 -2.082031 0.671875 -2.5 C 0.671875 -2.863281 0.769531 -3.382812 0.96875 -4.0625 C 1.164062 -4.738281 1.425781 -5.4375 1.75 -6.15625 C 2.070312 -6.882812 2.421875 -7.5 2.796875 -8 C 3.179688 -8.5 3.539062 -8.75 3.875 -8.75 C 4.382812 -8.75 4.984375 -8.523438 5.671875 -8.078125 C 6.367188 -7.640625 7.175781 -7.128906 8.09375 -6.546875 C 9.019531 -5.960938 10.082031 -5.445312 11.28125 -5 C 12.488281 -4.5625 13.863281 -4.34375 15.40625 -4.34375 C 16.175781 -4.34375 16.914062 -4.472656 17.625 -4.734375 C 18.34375 -5.003906 18.9375 -5.375 19.40625 -5.84375 C 19.875 -6.3125 20.109375 -6.835938 20.109375 -7.421875 C 20.109375 -7.816406 19.984375 -8.085938 19.734375 -8.234375 C 19.492188 -8.378906 19.148438 -8.453125 18.703125 -8.453125 C 18.078125 -8.453125 17.28125 -8.378906 16.3125 -8.234375 C 15.34375 -8.085938 14.226562 -8.015625 12.96875 -8.015625 C 11.601562 -8.015625 10.195312 -8.160156 8.75 -8.453125 C 7.300781 -8.742188 5.953125 -9.226562 4.703125 -9.90625 C 3.460938 -10.582031 2.453125 -11.476562 1.671875 -12.59375 C 0.890625 -13.707031 0.5 -15.078125 0.5 -16.703125 Z M 0.5 -16.703125 "/></g></g><g style="fill:#80b9b1;fill-opacity:1;"><g transform="translate(206.94668, 128.416523)"><path style="stroke:none" d="M 0 -23.390625 C 0.664062 -23.390625 1.410156 -23.617188 2.234375 -24.078125 C 3.054688 -24.546875 3.890625 -25.128906 4.734375 -25.828125 C 5.585938 -26.535156 6.390625 -27.234375 7.140625 -27.921875 C 7.898438 -28.617188 8.566406 -29.195312 9.140625 -29.65625 C 9.722656 -30.125 10.148438 -30.359375 10.421875 -30.359375 C 10.847656 -30.359375 11.0625 -30.09375 11.0625 -29.5625 L 11.0625 -23.390625 L 13.9375 -23.390625 L 13.9375 -21.71875 L 11.0625 -21.71875 L 11.0625 -8.21875 C 11.0625 -7.351562 11.070312 -6.484375 11.09375 -5.609375 C 11.113281 -4.742188 11.234375 -3.960938 11.453125 -3.265625 C 11.679688 -2.578125 12.082031 -2.046875 12.65625 -1.671875 C 12.789062 -1.578125 12.929688 -1.53125 13.078125 -1.53125 C 13.222656 -1.53125 13.375 -1.507812 13.53125 -1.46875 C 13.488281 -1.070312 13.269531 -0.722656 12.875 -0.421875 C 12.488281 -0.117188 12.023438 0.109375 11.484375 0.265625 C 10.953125 0.421875 10.421875 0.5 9.890625 0.5 C 8.285156 0.5 7 0.234375 6.03125 -0.296875 C 5.0625 -0.835938 4.328125 -1.554688 3.828125 -2.453125 C 3.328125 -3.359375 2.992188 -4.367188 2.828125 -5.484375 C 2.660156 -6.597656 2.578125 -7.722656 2.578125 -8.859375 L 2.578125 -19.578125 C 2.578125 -19.910156 2.554688 -20.242188 2.515625 -20.578125 C 2.484375 -20.910156 2.363281 -21.179688 2.15625 -21.390625 C 1.945312 -21.609375 1.570312 -21.71875 1.03125 -21.71875 L 0 -21.71875 Z M 0 -23.390625 "/></g></g></g></svg>